<svg width="100" height="100" viewBox="0 0 100 100" fill="none" xmlns="http://www.w3.org/2000/svg" role="img" aria-labelledby="title desc">
  <title id="title">DeroBay monochrome mark</title>
  <desc id="desc">A monochrome hexagon mark with a geometric D and commerce arrow.</desc>
  <path d="M50 5 88.97 27.5v45L50 95 11.03 72.5v-45L50 5Z" fill="#0f172a"/>
  <path d="M50 13 82.04 31.5v37L50 87 17.96 68.5v-37L50 13Z" fill="#ffffff"/>
  <path d="M50 21 75.98 36v28L50 79 24.02 64V36L50 21Z" fill="#0f172a"/>
  <path d="M35 32h19c11.6 0 20 7.4 20 18s-8.4 18-20 18H47v9H35V32Zm12 10v16h8c4.7 0 8-3.2 8-8s-3.3-8-8-8h-8Z" fill="#ffffff"/>
  <path d="M58 58h17l8 8-8 8H58V58Z" fill="#ffffff"/>
  <circle cx="73" cy="66" r="2.4" fill="#0f172a"/>
</svg>
